# xmcd
#
# Track frame offsets:
#	150
#	11847
#	26851
#	40209
#	52378
#	66493
#	84551
#	98707
#	109928
#	123974
#	138498
#	155602
#	172789
#
# Disc length: 2562 seconds
#
# Revision: 1
# Processed by: cddbd v1.5.2PL0 Copyright (c) Steve Scherf et al.
# Submitted via: audiograbber 1.83.01
#
DISCID=b60a000d
DTITLE=the Little Willies - the Little Willies
DYEAR=1900
DGENRE=
TTITLE0=Roly-Poly
TTITLE1=I'll never get out of this world alive
TTITLE2=love me
TTITLE3=it's not you, it's me
TTITLE4=best of all possible worlds
TTITLE5=no place to fall
TTITLE6=roll on
TTITLE7=i gotta get drunk
TTITLE8=streets of baltimore
TTITLE9=easy as the rain
TTITLE10=tennessee stud
TTITLE11=nightlife
TTITLE12=lou reed
EXTD=
EXTT0=
EXTT1=
EXTT2=
EXTT3=
EXTT4=
EXTT5=
EXTT6=
EXTT7=
EXTT8=
EXTT9=
EXTT10=
EXTT11=
EXTT12=
PLAYORDER=
